<mxfile host="www.draw.io" modified="2020-01-14T21:58:46.791Z" agent="Mozilla/5.0 (Windows NT 10.0; WOW64) AppleWebKit/537.36 (KHTML, like Gecko) Chrome/79.0.3945.117 Safari/537.36" etag="qY9rR61642KWq2xjndnD" version="12.5.3" type="github">
  <diagram id="L1jbM8mW93wAwY44JAMb" name="Page-1">
    <mxGraphModel dx="1185" dy="762" grid="1" gridSize="10" guides="1" tooltips="1" connect="1" arrows="1" fold="1" page="1" pageScale="1" pageWidth="850" pageHeight="1100" math="0" shadow="0">
      <root>
        <mxCell id="0"/>
        <mxCell id="1" parent="0"/>
        <mxCell id="L1meJ5uZWwkOYdYvXUN--1" value="Stepper Controller 1-3" style="rounded=0;whiteSpace=wrap;html=1;fillColor=#ffe6cc;strokeColor=#d79b00;" parent="1" vertex="1">
          <mxGeometry x="240" y="560" width="160" height="40" as="geometry"/>
        </mxCell>
        <mxCell id="L1meJ5uZWwkOYdYvXUN--4" value="Servo Controller 1-3" style="rounded=0;whiteSpace=wrap;html=1;fillColor=#dae8fc;strokeColor=#6c8ebf;" parent="1" vertex="1">
          <mxGeometry x="240" y="470" width="160" height="40" as="geometry"/>
        </mxCell>
        <mxCell id="L1meJ5uZWwkOYdYvXUN--9" value="10v" style="edgeStyle=orthogonalEdgeStyle;rounded=0;orthogonalLoop=1;jettySize=auto;html=1;exitX=0.25;exitY=0;exitDx=0;exitDy=0;labelPosition=center;verticalLabelPosition=middle;align=center;verticalAlign=middle;horizontal=0;" parent="1" edge="1">
          <mxGeometry relative="1" as="geometry">
            <mxPoint x="299.9971428571429" y="559.9957142857144" as="sourcePoint"/>
            <mxPoint x="300" y="510" as="targetPoint"/>
            <Array as="points">
              <mxPoint x="300" y="540"/>
              <mxPoint x="300" y="540"/>
            </Array>
          </mxGeometry>
        </mxCell>
        <mxCell id="L1meJ5uZWwkOYdYvXUN--15" value="DATA" style="edgeStyle=orthogonalEdgeStyle;rounded=0;orthogonalLoop=1;jettySize=auto;html=1;exitX=0.25;exitY=0;exitDx=0;exitDy=0;labelPosition=center;verticalLabelPosition=middle;align=center;verticalAlign=middle;horizontal=0;" parent="1" edge="1">
          <mxGeometry relative="1" as="geometry">
            <mxPoint x="340" y="560" as="sourcePoint"/>
            <mxPoint x="340.4" y="510.00000000000006" as="targetPoint"/>
            <Array as="points">
              <mxPoint x="340.2" y="520"/>
              <mxPoint x="340.2" y="520"/>
            </Array>
          </mxGeometry>
        </mxCell>
        <mxCell id="L1meJ5uZWwkOYdYvXUN--16" value="GND" style="edgeStyle=orthogonalEdgeStyle;rounded=0;orthogonalLoop=1;jettySize=auto;html=1;exitX=0.25;exitY=0;exitDx=0;exitDy=0;labelPosition=center;verticalLabelPosition=middle;align=center;verticalAlign=middle;horizontal=0;" parent="1" edge="1">
          <mxGeometry relative="1" as="geometry">
            <mxPoint x="360" y="560" as="sourcePoint"/>
            <mxPoint x="360.4" y="510.00000000000006" as="targetPoint"/>
            <Array as="points">
              <mxPoint x="360.2" y="520"/>
              <mxPoint x="360.2" y="520"/>
            </Array>
          </mxGeometry>
        </mxCell>
        <mxCell id="L1meJ5uZWwkOYdYvXUN--48" value="10V" style="edgeStyle=orthogonalEdgeStyle;rounded=0;orthogonalLoop=1;jettySize=auto;html=1;exitX=0.5;exitY=0;exitDx=0;exitDy=0;entryX=0.25;entryY=1;entryDx=0;entryDy=0;" parent="1" source="L1meJ5uZWwkOYdYvXUN--45" target="L1meJ5uZWwkOYdYvXUN--1" edge="1">
          <mxGeometry relative="1" as="geometry"/>
        </mxCell>
        <mxCell id="L1meJ5uZWwkOYdYvXUN--45" value="24V to 10V Buck Converter" style="whiteSpace=wrap;html=1;aspect=fixed;" parent="1" vertex="1">
          <mxGeometry x="180" y="710" width="80" height="80" as="geometry"/>
        </mxCell>
        <mxCell id="L1meJ5uZWwkOYdYvXUN--49" value="5V" style="edgeStyle=orthogonalEdgeStyle;rounded=0;orthogonalLoop=1;jettySize=auto;html=1;exitX=0.5;exitY=0;exitDx=0;exitDy=0;entryX=0.5;entryY=1;entryDx=0;entryDy=0;" parent="1" source="L1meJ5uZWwkOYdYvXUN--46" target="L1meJ5uZWwkOYdYvXUN--1" edge="1">
          <mxGeometry relative="1" as="geometry"/>
        </mxCell>
        <mxCell id="L1meJ5uZWwkOYdYvXUN--57" value="5V" style="edgeStyle=orthogonalEdgeStyle;rounded=0;orthogonalLoop=1;jettySize=auto;html=1;exitX=0.75;exitY=1;exitDx=0;exitDy=0;entryX=0.25;entryY=0;entryDx=0;entryDy=0;horizontal=0;" parent="1" source="L1meJ5uZWwkOYdYvXUN--46" target="L1meJ5uZWwkOYdYvXUN--56" edge="1">
          <mxGeometry relative="1" as="geometry">
            <Array as="points">
              <mxPoint x="340" y="819"/>
            </Array>
          </mxGeometry>
        </mxCell>
        <mxCell id="L1meJ5uZWwkOYdYvXUN--46" value="24V to 5V Buck Converter" style="whiteSpace=wrap;html=1;aspect=fixed;" parent="1" vertex="1">
          <mxGeometry x="280" y="710" width="80" height="80" as="geometry"/>
        </mxCell>
        <mxCell id="L1meJ5uZWwkOYdYvXUN--50" value="DATA" style="edgeStyle=orthogonalEdgeStyle;rounded=0;orthogonalLoop=1;jettySize=auto;html=1;exitX=0.5;exitY=0;exitDx=0;exitDy=0;entryX=0.75;entryY=1;entryDx=0;entryDy=0;" parent="1" source="L1meJ5uZWwkOYdYvXUN--47" target="L1meJ5uZWwkOYdYvXUN--1" edge="1">
          <mxGeometry relative="1" as="geometry"/>
        </mxCell>
        <mxCell id="L1meJ5uZWwkOYdYvXUN--47" value="Tri-State Buffer" style="whiteSpace=wrap;html=1;aspect=fixed;" parent="1" vertex="1">
          <mxGeometry x="390" y="710" width="80" height="80" as="geometry"/>
        </mxCell>
        <mxCell id="L1meJ5uZWwkOYdYvXUN--52" value="24V" style="edgeStyle=orthogonalEdgeStyle;rounded=0;orthogonalLoop=1;jettySize=auto;html=1;exitX=0.75;exitY=0;exitDx=0;exitDy=0;entryX=0.5;entryY=1;entryDx=0;entryDy=0;" parent="1" source="L1meJ5uZWwkOYdYvXUN--51" target="L1meJ5uZWwkOYdYvXUN--46" edge="1">
          <mxGeometry relative="1" as="geometry"/>
        </mxCell>
        <mxCell id="L1meJ5uZWwkOYdYvXUN--53" value="24V" style="edgeStyle=orthogonalEdgeStyle;rounded=0;orthogonalLoop=1;jettySize=auto;html=1;exitX=0.5;exitY=0;exitDx=0;exitDy=0;entryX=0.5;entryY=1;entryDx=0;entryDy=0;horizontal=0;" parent="1" source="L1meJ5uZWwkOYdYvXUN--51" target="L1meJ5uZWwkOYdYvXUN--45" edge="1">
          <mxGeometry relative="1" as="geometry"/>
        </mxCell>
        <mxCell id="L1meJ5uZWwkOYdYvXUN--54" value="24V" style="edgeStyle=orthogonalEdgeStyle;rounded=0;orthogonalLoop=1;jettySize=auto;html=1;exitX=0.25;exitY=0;exitDx=0;exitDy=0;entryX=0;entryY=0.75;entryDx=0;entryDy=0;" parent="1" source="L1meJ5uZWwkOYdYvXUN--51" target="L1meJ5uZWwkOYdYvXUN--1" edge="1">
          <mxGeometry relative="1" as="geometry">
            <Array as="points">
              <mxPoint x="200" y="820"/>
              <mxPoint x="150" y="820"/>
              <mxPoint x="150" y="590"/>
            </Array>
          </mxGeometry>
        </mxCell>
        <mxCell id="L1meJ5uZWwkOYdYvXUN--51" value="120vAC to 24V @10 AMP Power Supply" style="whiteSpace=wrap;html=1;aspect=fixed;" parent="1" vertex="1">
          <mxGeometry x="180" y="850" width="80" height="80" as="geometry"/>
        </mxCell>
        <mxCell id="L1meJ5uZWwkOYdYvXUN--59" value="DATA" style="edgeStyle=orthogonalEdgeStyle;rounded=0;orthogonalLoop=1;jettySize=auto;html=1;exitX=0.75;exitY=0;exitDx=0;exitDy=0;entryX=0.5;entryY=1;entryDx=0;entryDy=0;horizontal=0;" parent="1" source="L1meJ5uZWwkOYdYvXUN--56" target="L1meJ5uZWwkOYdYvXUN--47" edge="1">
          <mxGeometry relative="1" as="geometry">
            <Array as="points">
              <mxPoint x="430" y="848"/>
            </Array>
          </mxGeometry>
        </mxCell>
        <mxCell id="L1meJ5uZWwkOYdYvXUN--56" value="Raspberry Pi 4" style="rounded=0;whiteSpace=wrap;html=1;" parent="1" vertex="1">
          <mxGeometry x="293" y="848" width="190" height="80" as="geometry"/>
        </mxCell>
      </root>
    </mxGraphModel>
  </diagram>
</mxfile>
